<svg viewBox="0 0 1152 1280" xmlns="http://www.w3.org/2000/svg">

    <!-- yaumati.github.io/keipou -->
    <!-- Copyright 2021 Horace Ho -->

    <style>
        rect {
            fill: none;
            stroke: #555;
            stroke-width: 12;
        }
        line {
            stroke: #555;
            stroke-width: 4;
            stroke-linecap: round;
        }
    </style>

    <rect x="64" y="64" width="1024" height="1152" />

    <line x1="64"  y1="192"  x2="1088" y2="192"  />
    <line x1="64"  y1="320"  x2="1088" y2="320"  />
    <line x1="64"  y1="448"  x2="1088" y2="448"  />
    <line x1="64"  y1="576"  x2="1088" y2="576"  />
    <line x1="64"  y1="704"  x2="1088" y2="704"  />
    <line x1="64"  y1="832"  x2="1088" y2="832"  />
    <line x1="64"  y1="960"  x2="1088" y2="960"  />
    <line x1="64"  y1="1088" x2="1088" y2="1088" />

    <line x1="192" y1="64"   x2="192"  y2="576"  />
    <line x1="192" y1="704"  x2="192"  y2="1216" />
    <line x1="320" y1="64"   x2="320"  y2="576"  />
    <line x1="320" y1="704"  x2="320"  y2="1216" />
    <line x1="448" y1="64"   x2="448"  y2="576"  />
    <line x1="448" y1="704"  x2="448"  y2="1216" />
    <line x1="576" y1="64"   x2="576"  y2="576"  />
    <line x1="576" y1="704"  x2="576"  y2="1216" />
    <line x1="704" y1="64"   x2="704"  y2="576"  />
    <line x1="704" y1="704"  x2="704"  y2="1216" />
    <line x1="832" y1="64"   x2="832"  y2="576"  />
    <line x1="832" y1="704"  x2="832"  y2="1216" />
    <line x1="960" y1="64"   x2="960"  y2="576"  />
    <line x1="960" y1="704"  x2="960"  y2="1216" />

    <line x1="704" y1="320"  x2="448"  y2="68"   />
    <line x1="448" y1="320"  x2="704"  y2="68"   />
    <line x1="704" y1="960"  x2="448"  y2="1212" />
    <line x1="448" y1="960"  x2="704"  y2="1212" />

    <line x1="176" y1="304" x2="146" y2="304" />
    <line x1="176" y1="304" x2="176" y2="274" />
    <line x1="208" y1="304" x2="238" y2="304" />
    <line x1="208" y1="304" x2="208" y2="274" />
    <line x1="176" y1="336" x2="146" y2="336" />
    <line x1="176" y1="336" x2="176" y2="366" />
    <line x1="208" y1="336" x2="238" y2="336" />
    <line x1="208" y1="336" x2="208" y2="366" />
    <line x1="944" y1="304" x2="914" y2="304" />
    <line x1="944" y1="304" x2="944" y2="274" />
    <line x1="976" y1="304" x2="1006" y2="304" />
    <line x1="976" y1="304" x2="976" y2="274" />
    <line x1="944" y1="336" x2="914" y2="336" />
    <line x1="944" y1="336" x2="944" y2="366" />
    <line x1="976" y1="336" x2="1006" y2="336" />
    <line x1="976" y1="336" x2="976" y2="366" />
    <line x1="176" y1="944" x2="146" y2="944" />
    <line x1="176" y1="944" x2="176" y2="914" />
    <line x1="208" y1="944" x2="238" y2="944" />
    <line x1="208" y1="944" x2="208" y2="914" />
    <line x1="176" y1="976" x2="146" y2="976" />
    <line x1="176" y1="976" x2="176" y2="1006" />
    <line x1="208" y1="976" x2="238" y2="976" />
    <line x1="208" y1="976" x2="208" y2="1006" />
    <line x1="944" y1="944" x2="914" y2="944" />
    <line x1="944" y1="944" x2="944" y2="914" />
    <line x1="976" y1="944" x2="1006" y2="944" />
    <line x1="976" y1="944" x2="976" y2="914" />
    <line x1="944" y1="976" x2="914" y2="976" />
    <line x1="944" y1="976" x2="944" y2="1006" />
    <line x1="976" y1="976" x2="1006" y2="976" />
    <line x1="976" y1="976" x2="976" y2="1006" />
    <line x1="80" y1="432" x2="110" y2="432" />
    <line x1="80" y1="432" x2="80" y2="402" />
    <line x1="80" y1="464" x2="110" y2="464" />
    <line x1="80" y1="464" x2="80" y2="494" />
    <line x1="304" y1="432" x2="274" y2="432" />
    <line x1="304" y1="432" x2="304" y2="402" />
    <line x1="336" y1="432" x2="366" y2="432" />
    <line x1="336" y1="432" x2="336" y2="402" />
    <line x1="304" y1="464" x2="274" y2="464" />
    <line x1="304" y1="464" x2="304" y2="494" />
    <line x1="336" y1="464" x2="366" y2="464" />
    <line x1="336" y1="464" x2="336" y2="494" />
    <line x1="560" y1="432" x2="530" y2="432" />
    <line x1="560" y1="432" x2="560" y2="402" />
    <line x1="592" y1="432" x2="622" y2="432" />
    <line x1="592" y1="432" x2="592" y2="402" />
    <line x1="560" y1="464" x2="530" y2="464" />
    <line x1="560" y1="464" x2="560" y2="494" />
    <line x1="592" y1="464" x2="622" y2="464" />
    <line x1="592" y1="464" x2="592" y2="494" />
    <line x1="816" y1="432" x2="786" y2="432" />
    <line x1="816" y1="432" x2="816" y2="402" />
    <line x1="848" y1="432" x2="878" y2="432" />
    <line x1="848" y1="432" x2="848" y2="402" />
    <line x1="816" y1="464" x2="786" y2="464" />
    <line x1="816" y1="464" x2="816" y2="494" />
    <line x1="848" y1="464" x2="878" y2="464" />
    <line x1="848" y1="464" x2="848" y2="494" />
    <line x1="1072" y1="432" x2="1042" y2="432" />
    <line x1="1072" y1="432" x2="1072" y2="402" />
    <line x1="1072" y1="464" x2="1042" y2="464" />
    <line x1="1072" y1="464" x2="1072" y2="494" />
    <line x1="80" y1="816" x2="110" y2="816" />
    <line x1="80" y1="816" x2="80" y2="786" />
    <line x1="80" y1="848" x2="110" y2="848" />
    <line x1="80" y1="848" x2="80" y2="878" />
    <line x1="304" y1="816" x2="274" y2="816" />
    <line x1="304" y1="816" x2="304" y2="786" />
    <line x1="336" y1="816" x2="366" y2="816" />
    <line x1="336" y1="816" x2="336" y2="786" />
    <line x1="304" y1="848" x2="274" y2="848" />
    <line x1="304" y1="848" x2="304" y2="878" />
    <line x1="336" y1="848" x2="366" y2="848" />
    <line x1="336" y1="848" x2="336" y2="878" />
    <line x1="560" y1="816" x2="530" y2="816" />
    <line x1="560" y1="816" x2="560" y2="786" />
    <line x1="592" y1="816" x2="622" y2="816" />
    <line x1="592" y1="816" x2="592" y2="786" />
    <line x1="560" y1="848" x2="530" y2="848" />
    <line x1="560" y1="848" x2="560" y2="878" />
    <line x1="592" y1="848" x2="622" y2="848" />
    <line x1="592" y1="848" x2="592" y2="878" />
    <line x1="816" y1="816" x2="786" y2="816" />
    <line x1="816" y1="816" x2="816" y2="786" />
    <line x1="848" y1="816" x2="878" y2="816" />
    <line x1="848" y1="816" x2="848" y2="786" />
    <line x1="816" y1="848" x2="786" y2="848" />
    <line x1="816" y1="848" x2="816" y2="878" />
    <line x1="848" y1="848" x2="878" y2="848" />
    <line x1="848" y1="848" x2="848" y2="878" />
    <line x1="1072" y1="816" x2="1042" y2="816" />
    <line x1="1072" y1="816" x2="1072" y2="786" />
    <line x1="1072" y1="848" x2="1042" y2="848" />
    <line x1="1072" y1="848" x2="1072" y2="878" />

</svg>
